<?xml version="1.0" standalone="no"?><!DOCTYPE svg PUBLIC "-//W3C//DTD SVG 1.1//EN" "http://www.w3.org/Graphics/SVG/1.1/DTD/svg11.dtd"><svg t="1728913308084" class="icon" viewBox="0 0 1025 1024" version="1.1" xmlns="http://www.w3.org/2000/svg" p-id="4958" xmlns:xlink="http://www.w3.org/1999/xlink" width="200.1953125" height="200"><path d="M243.174168 550.404463c-27.159206 0-38.39184-11.25247-38.39184-38.395447 0-27.159206 11.232634-38.411676 38.39184-38.411676h230.369074v-230.387106c0-27.159206 11.250667-38.409873 38.408069-38.409873 27.141174 0 38.39184 11.250667 38.391841 38.409873v230.387106h230.387106c27.141174 0 38.393643 11.25247 38.393644 38.411676 0 27.142977-11.25247 38.395447-38.393644 38.395447H550.343152v230.38891c0 27.157403-11.250667 38.409873-38.391841 38.409873-27.157403 0-38.40807-11.25247-38.408069-38.409873V550.404463h-230.369074zM102.390262 1024h819.122099c56.550874 0 102.390262-45.842995 102.390262-102.397475V102.399279c0-56.540054-45.839388-102.399279-102.390262-102.399279H102.390262C45.839388 0.001803 0 45.861028 0 102.401082v819.203246c0 56.552677 45.839388 102.395672 102.390262 102.395672z" fill="#8a8a8a" p-id="4959" data-spm-anchor-id="a313x.search_index.0.i2.2d333a811C0hFA" class="selected"></path></svg>