<?xml version="1.0" standalone="no"?><!DOCTYPE svg PUBLIC "-//W3C//DTD SVG 1.1//EN" "http://www.w3.org/Graphics/SVG/1.1/DTD/svg11.dtd"><svg t="1728739939883" class="icon" viewBox="0 0 1024 1024" version="1.1" xmlns="http://www.w3.org/2000/svg" p-id="38946" xmlns:xlink="http://www.w3.org/1999/xlink" width="200" height="200"><path d="M512 0a512 512 0 1 1 0 1024A512 512 0 0 1 512 0z m-9.142857 242.322286H420.571429a9.142857 9.142857 0 0 0-9.142858 8.777143V603.428571c0 4.973714 3.949714 8.996571 8.850286 9.142858H713.142857a9.142857 9.142857 0 0 0 9.142857-8.850286V521.142857A9.142857 9.142857 0 0 0 713.435429 512H512V251.392a9.142857 9.142857 0 0 0-9.142857-9.069714z" fill="#FE814C" p-id="38947"></path></svg>