<?xml version="1.0" standalone="no"?><!DOCTYPE svg PUBLIC "-//W3C//DTD SVG 1.1//EN" "http://www.w3.org/Graphics/SVG/1.1/DTD/svg11.dtd"><svg t="1739546129660" class="icon" viewBox="0 0 1024 1024" version="1.1" xmlns="http://www.w3.org/2000/svg" p-id="22921" xmlns:xlink="http://www.w3.org/1999/xlink" width="200" height="200"><path d="M1024 512c0 282.8-229.2 512-512 512S0 794.8 0 512 229.2 0 512 0s512 229.2 512 512" fill="#4b6dda" p-id="22922" data-spm-anchor-id="a313x.search_index.0.i7.264a3a81dRjXYn" class="selected"></path><path d="M701.52 585.36h48v223.28h-48z" fill="#FFFFFF" p-id="22923"></path><path d="M613.84 673.04h223.28v48H613.84z" fill="#FFFFFF" p-id="22924"></path><path d="M480.4 807.76h-236.8c-30.64 0-55.6-24.96-55.6-55.6V246.88c0-30.64 24.96-55.6 55.6-55.6h189.52c7.12 0 13.84 3.2 18.4 8.64l71.76 86.08h257.2c30.64 0 55.6 24.96 55.6 55.6v142.08h-48V341.68a7.6 7.6 0 0 0-7.6-7.6H512c-7.12 0-13.84-3.2-18.4-8.64l-71.76-86.08H243.6a7.6 7.6 0 0 0-7.6 7.6v505.28c0 4.16 3.36 7.6 7.6 7.6h236.88v47.92z" fill="#FFFFFF" p-id="22925"></path></svg>